<svg width="1992" height="681" viewBox="0 0 1992 681" fill="none" xmlns="http://www.w3.org/2000/svg">
<path d="M300.454 273.136C291.438 273.136 283.334 271.068 276.141 266.928C268.959 262.777 262.318 257.532 256.225 251.199C250.141 244.865 244.48 238.355 239.245 231.657C234.006 224.964 228.834 219.126 223.725 214.136C218.61 209.136 213.376 205.845 208.016 204.261C202.652 202.678 196.923 203.834 190.829 207.72C183.772 212.11 180.12 220.522 179.87 232.949C179.631 245.365 182.495 260.167 188.454 277.345C194.423 294.511 203.016 312.23 214.225 330.49C226.402 349.73 239.068 365.626 252.225 378.178C265.376 390.72 277.792 398.334 289.475 401.011C300.443 403.678 310.433 403.251 319.433 399.72C328.443 396.193 336.485 390.714 343.558 383.282C350.626 375.855 356.35 367.876 360.725 359.345L368.037 363.365C361.454 377.006 352.131 389.126 340.079 399.72C328.022 410.318 314.443 418.542 299.35 424.386C284.251 430.235 268.542 433.157 252.225 433.157C235.167 433.157 219.147 429.876 204.162 423.303C189.188 416.72 176.037 407.647 164.704 396.074C153.381 384.506 144.495 371.11 138.037 355.886C131.589 340.667 128.37 324.282 128.37 306.74C128.37 289.199 131.589 272.818 138.037 257.595C144.495 242.376 153.381 228.98 164.704 217.407C176.037 205.839 189.188 196.834 204.162 190.386C219.147 183.928 235.167 180.699 252.225 180.699C261.475 180.699 269.87 182.105 277.412 184.907C284.964 187.699 291.912 190.985 298.245 194.761C304.579 198.542 310.423 201.834 315.787 204.636C321.147 207.428 326.141 208.824 330.766 208.824C339.777 208.824 345.683 206.449 348.475 201.699C351.277 196.949 352.683 190.553 352.683 182.511H360.725C362.183 192.501 362.36 202.792 361.266 213.386C360.183 223.985 357.443 233.792 353.058 242.803C348.667 251.818 342.209 259.131 333.683 264.74C325.167 270.339 314.089 273.136 300.454 273.136Z" fill="#6B1A29"/>
<path d="M451.697 341.449C452.432 342.673 453.161 343.959 453.885 345.303C454.619 346.636 455.473 347.907 456.447 349.115C477.64 382.49 499.374 400.459 521.656 403.011C543.947 405.568 565.572 395.277 586.531 372.136C587.739 373.11 588.952 374.209 590.176 375.428C591.395 376.652 592.494 377.865 593.468 379.074C583.228 390.772 573.239 400.636 563.489 408.678C553.749 416.72 542.676 422.813 530.26 426.949C517.843 431.084 502.374 433.157 483.864 433.157C461.932 433.157 442.807 428.839 426.489 420.199C410.166 411.548 397.437 399.61 388.301 384.386C379.176 369.167 374.614 351.563 374.614 331.574C374.614 311.605 379.176 294.068 388.301 278.97C397.437 263.876 410.166 252.006 426.489 243.365C442.807 234.714 461.932 230.386 483.864 230.386C503.098 230.386 518.499 233.131 530.072 238.615C541.64 244.089 548.947 251.272 551.989 260.157C555.041 269.048 553.583 278.548 547.614 288.657C541.64 298.772 530.739 308.511 514.906 317.886C499.072 327.261 477.999 335.115 451.697 341.449ZM482.76 272.032C475.202 259.615 466.551 251.647 456.801 248.115C447.062 244.574 438.666 245.001 431.614 249.386C422.348 255.47 419.603 265.881 423.385 280.615C427.161 295.355 435.015 313.074 446.947 333.782C457.182 331.589 466.197 327.568 473.989 321.72C481.781 315.876 486.77 308.688 488.968 300.157C491.161 291.631 489.093 282.256 482.76 272.032Z" fill="#6B1A29"/>
<path d="M568.263 182.886H577.388C577.388 191.417 579.086 197.688 582.492 201.699C585.909 205.714 590.294 208.511 595.659 210.095C601.018 211.678 606.742 212.839 612.826 213.574C618.919 214.313 624.643 215.355 629.992 216.699C635.352 218.032 639.732 220.527 643.138 224.178C646.555 227.834 648.263 233.673 648.263 241.699V430.595H568.263V182.886Z" fill="#6B1A29"/>
<path d="M663.975 430.594V258.886C666.902 262.777 671.475 266.188 677.683 269.115C683.891 272.032 692.23 274.344 702.704 276.053C709.287 277.027 715.746 278.063 722.079 279.157C728.412 280.256 733.647 282.631 737.787 286.282C741.923 289.938 743.996 296.147 743.996 304.907V430.594H663.975Z" fill="#6B1A29"/>
<path d="M844.837 339.261L835.691 341.449C836.425 342.673 837.155 343.959 837.879 345.303C838.613 346.636 839.467 347.907 840.441 349.115C861.634 382.49 883.368 400.459 905.649 403.011C927.941 405.569 949.566 395.277 970.524 372.136C971.733 373.11 972.946 374.209 974.17 375.428C975.389 376.652 976.488 377.865 977.462 379.074C967.222 390.772 957.233 400.636 947.483 408.678C937.743 416.72 926.67 422.813 914.254 426.949C901.837 431.084 886.368 433.157 867.858 433.157C845.925 433.157 826.8 428.839 810.483 420.199C794.16 411.548 781.431 399.61 772.295 384.386C763.17 369.167 758.608 351.563 758.608 331.574C758.608 311.605 763.17 294.068 772.295 278.97C781.431 263.876 794.16 252.006 810.483 243.365C826.8 234.714 845.925 230.386 867.858 230.386C887.092 230.386 902.556 233.131 914.254 238.615C925.946 244.089 933.431 251.214 936.712 259.99C940.004 268.756 938.967 278.131 933.608 288.115C928.259 298.105 918.274 307.605 903.649 316.615C889.035 325.615 869.431 333.167 844.837 339.261ZM836.441 332.324C847.149 329.647 855.238 325.865 860.712 320.99C866.196 316.115 869.795 310.699 871.504 304.74C873.212 298.772 873.514 292.923 872.42 287.199C871.321 281.48 869.431 276.423 866.754 272.032C859.196 259.615 850.545 251.647 840.795 248.115C831.056 244.574 822.66 245.001 815.608 249.386C806.342 255.47 803.597 265.881 807.379 280.615C811.155 295.355 819.009 313.074 830.941 333.782C831.925 333.532 832.842 333.292 833.691 333.053C834.535 332.803 835.451 332.563 836.441 332.324ZM817.795 222.345H806.462L843.733 160.24H871.504L908.399 222.345H897.441L857.629 192.74L817.795 222.345Z" fill="#6B1A29"/>
<mask id="mask0_2028_30" style="mask-type:luminance" maskUnits="userSpaceOnUse" x="669" y="168" width="86" height="67">
<path d="M669.333 168H754.667V234.667H669.333V168Z" fill="white"/>
</mask>
<g mask="url(#mask0_2028_30)">
<mask id="mask1_2028_30" style="mask-type:luminance" maskUnits="userSpaceOnUse" x="654" y="147" width="119" height="126">
<path d="M673.307 147.969L772.786 165.161L754.229 272.516L654.755 255.323L673.307 147.969Z" fill="white"/>
</mask>
<g mask="url(#mask1_2028_30)">
<mask id="mask2_2028_30" style="mask-type:luminance" maskUnits="userSpaceOnUse" x="654" y="147" width="119" height="126">
<path d="M673.307 147.969L772.786 165.161L754.229 272.516L654.755 255.323L673.307 147.969Z" fill="white"/>
</mask>
<g mask="url(#mask2_2028_30)">
<path d="M672.12 204.177C669.422 216.088 666.849 226.026 676.234 219.896C685.521 213.891 710.214 222.073 720.703 226.016C729.453 229.307 737.609 223.677 742.438 231.552C747.599 239.984 746.51 217.458 746.313 227.245C746.266 229.156 753.708 221.906 753.839 219.937C754.854 203.75 748.922 188.281 736.271 177.917C729.229 172.146 720.781 168.338 711.542 168.307C702.24 168.193 693.115 171.594 685.969 177.547C678.063 184.219 672.542 193.505 670.568 203.693C670.411 204.594 671.828 205.052 672.12 204.177Z" fill="#EECCCD"/>
</g>
</g>
</g>
<mask id="mask3_2028_30" style="mask-type:luminance" maskUnits="userSpaceOnUse" x="702" y="156" width="30" height="27">
<path d="M702.667 156H732V182.667H702.667V156Z" fill="white"/>
</mask>
<g mask="url(#mask3_2028_30)">
<mask id="mask4_2028_30" style="mask-type:luminance" maskUnits="userSpaceOnUse" x="654" y="147" width="119" height="126">
<path d="M673.307 147.969L772.786 165.161L754.229 272.516L654.755 255.323L673.307 147.969Z" fill="white"/>
</mask>
<g mask="url(#mask4_2028_30)">
<mask id="mask5_2028_30" style="mask-type:luminance" maskUnits="userSpaceOnUse" x="654" y="147" width="119" height="126">
<path d="M673.307 147.969L772.786 165.161L754.229 272.516L654.755 255.323L673.307 147.969Z" fill="white"/>
</mask>
<g mask="url(#mask5_2028_30)">
<path d="M730.656 163.073C727.865 157.401 720.734 162.854 716.745 167C715.266 164.042 713.568 161.115 711.333 158.807C709.339 156.755 705.646 155.906 704.427 159.25C703.182 162.734 704.911 167.161 706.052 170.417C706.974 172.922 711.76 183.922 715.76 181.344C719.776 178.693 723.562 175.719 727.062 172.339C729.453 170.052 732.401 166.578 730.656 163.073Z" fill="#6B1A29"/>
</g>
</g>
</g>
<mask id="mask6_2028_30" style="mask-type:luminance" maskUnits="userSpaceOnUse" x="680" y="190" width="14" height="9">
<path d="M680 190.667H693.333V198.667H680V190.667Z" fill="white"/>
</mask>
<g mask="url(#mask6_2028_30)">
<mask id="mask7_2028_30" style="mask-type:luminance" maskUnits="userSpaceOnUse" x="654" y="147" width="119" height="126">
<path d="M673.307 147.969L772.786 165.161L754.229 272.516L654.755 255.323L673.307 147.969Z" fill="white"/>
</mask>
<g mask="url(#mask7_2028_30)">
<mask id="mask8_2028_30" style="mask-type:luminance" maskUnits="userSpaceOnUse" x="654" y="147" width="119" height="126">
<path d="M673.307 147.969L772.786 165.161L754.229 272.516L654.755 255.323L673.307 147.969Z" fill="white"/>
</mask>
<g mask="url(#mask8_2028_30)">
<path d="M682.563 198.083C683.979 198.115 685.458 197.375 686.755 196.885C688.198 196.354 689.573 195.813 690.969 195.125C692.995 194.125 691.974 190.964 689.714 191.708C688.198 192.229 686.661 192.891 685.193 193.557C683.875 194.188 682.354 194.776 681.391 195.818C680.51 196.802 681.505 198.042 682.563 198.083Z" fill="#6B1A29"/>
</g>
</g>
</g>
<mask id="mask9_2028_30" style="mask-type:luminance" maskUnits="userSpaceOnUse" x="690" y="180" width="10" height="11">
<path d="M690.667 180H700V190.667H690.667V180Z" fill="white"/>
</mask>
<g mask="url(#mask9_2028_30)">
<mask id="mask10_2028_30" style="mask-type:luminance" maskUnits="userSpaceOnUse" x="654" y="147" width="119" height="126">
<path d="M673.307 147.969L772.786 165.161L754.229 272.516L654.755 255.323L673.307 147.969Z" fill="white"/>
</mask>
<g mask="url(#mask10_2028_30)">
<mask id="mask11_2028_30" style="mask-type:luminance" maskUnits="userSpaceOnUse" x="654" y="147" width="119" height="126">
<path d="M673.307 147.969L772.786 165.161L754.229 272.516L654.755 255.323L673.307 147.969Z" fill="white"/>
</mask>
<g mask="url(#mask11_2028_30)">
<path d="M691.37 182.531C692.76 185.193 694.125 187.99 696.323 190.078C697.354 191.109 699.37 189.75 698.755 188.365C697.448 185.646 695.271 183.422 693.161 181.208C692.359 180.5 690.891 181.599 691.37 182.531Z" fill="#6B1A29"/>
</g>
</g>
</g>
<mask id="mask12_2028_30" style="mask-type:luminance" maskUnits="userSpaceOnUse" x="698" y="192" width="10" height="7">
<path d="M698.667 192H708V198.667H698.667V192Z" fill="white"/>
</mask>
<g mask="url(#mask12_2028_30)">
<mask id="mask13_2028_30" style="mask-type:luminance" maskUnits="userSpaceOnUse" x="654" y="147" width="119" height="126">
<path d="M673.307 147.969L772.786 165.161L754.229 272.516L654.755 255.323L673.307 147.969Z" fill="white"/>
</mask>
<g mask="url(#mask13_2028_30)">
<mask id="mask14_2028_30" style="mask-type:luminance" maskUnits="userSpaceOnUse" x="654" y="147" width="119" height="126">
<path d="M673.307 147.969L772.786 165.161L754.229 272.516L654.755 255.323L673.307 147.969Z" fill="white"/>
</mask>
<g mask="url(#mask14_2028_30)">
<path d="M700.109 198.625C702.245 198.641 704.583 197.052 706.339 195.932C707.068 195.417 707.26 194.312 706.745 193.583C706.172 192.776 705.182 192.745 704.396 193.177C702.594 194.146 700.234 195.448 699.255 197.411C698.859 198.057 699.464 198.656 700.109 198.625Z" fill="#6B1A29"/>
</g>
</g>
</g>
<mask id="mask15_2028_30" style="mask-type:luminance" maskUnits="userSpaceOnUse" x="700" y="178" width="10" height="9">
<path d="M700 178.667H709.333V186.667H700V178.667Z" fill="white"/>
</mask>
<g mask="url(#mask15_2028_30)">
<mask id="mask16_2028_30" style="mask-type:luminance" maskUnits="userSpaceOnUse" x="654" y="147" width="119" height="126">
<path d="M673.307 147.969L772.786 165.161L754.229 272.516L654.755 255.323L673.307 147.969Z" fill="white"/>
</mask>
<g mask="url(#mask16_2028_30)">
<mask id="mask17_2028_30" style="mask-type:luminance" maskUnits="userSpaceOnUse" x="654" y="147" width="119" height="126">
<path d="M673.307 147.969L772.786 165.161L754.229 272.516L654.755 255.323L673.307 147.969Z" fill="white"/>
</mask>
<g mask="url(#mask17_2028_30)">
<path d="M702.229 185.547C703.427 185.615 704.469 184.938 705.5 184.333C706.516 183.802 707.661 183.359 708.552 182.729C710.266 181.458 708.792 178.859 706.828 179.516C705.63 179.875 704.563 180.688 703.578 181.443C702.677 182.141 701.448 183.068 701.245 184.24C701.161 184.724 701.667 185.521 702.229 185.547Z" fill="#6B1A29"/>
</g>
</g>
</g>
<mask id="mask18_2028_30" style="mask-type:luminance" maskUnits="userSpaceOnUse" x="712" y="185" width="8" height="11">
<path d="M712 185.333H720V196H712V185.333Z" fill="white"/>
</mask>
<g mask="url(#mask18_2028_30)">
<mask id="mask19_2028_30" style="mask-type:luminance" maskUnits="userSpaceOnUse" x="654" y="147" width="119" height="126">
<path d="M673.307 147.969L772.786 165.161L754.229 272.516L654.755 255.323L673.307 147.969Z" fill="white"/>
</mask>
<g mask="url(#mask19_2028_30)">
<mask id="mask20_2028_30" style="mask-type:luminance" maskUnits="userSpaceOnUse" x="654" y="147" width="119" height="126">
<path d="M673.307 147.969L772.786 165.161L754.229 272.516L654.755 255.323L673.307 147.969Z" fill="white"/>
</mask>
<g mask="url(#mask20_2028_30)">
<path d="M712.958 187.688C713.464 189.698 714.339 191.625 715.229 193.484C716.432 195.969 720.073 194.677 719.26 191.979C718.51 189.714 717.271 187.438 715.552 185.859C714.208 184.563 712.573 186.198 712.958 187.688Z" fill="#6B1A29"/>
</g>
</g>
</g>
<mask id="mask21_2028_30" style="mask-type:luminance" maskUnits="userSpaceOnUse" x="722" y="180" width="13" height="8">
<path d="M722.667 180H734.667V188H722.667V180Z" fill="white"/>
</mask>
<g mask="url(#mask21_2028_30)">
<mask id="mask22_2028_30" style="mask-type:luminance" maskUnits="userSpaceOnUse" x="654" y="147" width="119" height="126">
<path d="M673.307 147.969L772.786 165.161L754.229 272.516L654.755 255.323L673.307 147.969Z" fill="white"/>
</mask>
<g mask="url(#mask22_2028_30)">
<mask id="mask23_2028_30" style="mask-type:luminance" maskUnits="userSpaceOnUse" x="654" y="147" width="119" height="126">
<path d="M673.307 147.969L772.786 165.161L754.229 272.516L654.755 255.323L673.307 147.969Z" fill="white"/>
</mask>
<g mask="url(#mask23_2028_30)">
<path d="M725.104 187.797C727.734 186.969 730.427 186.224 732.797 184.854C734.844 183.714 733.005 180.766 730.974 181.411C728.422 182.177 726.016 183.755 723.656 185.052C722.083 185.922 723.521 188.302 725.104 187.797Z" fill="#6B1A29"/>
</g>
</g>
</g>
<mask id="mask24_2028_30" style="mask-type:luminance" maskUnits="userSpaceOnUse" x="712" y="198" width="11" height="8">
<path d="M712 198.667H722.667V205.333H712V198.667Z" fill="white"/>
</mask>
<g mask="url(#mask24_2028_30)">
<mask id="mask25_2028_30" style="mask-type:luminance" maskUnits="userSpaceOnUse" x="654" y="147" width="119" height="126">
<path d="M673.307 147.969L772.786 165.161L754.229 272.516L654.755 255.323L673.307 147.969Z" fill="white"/>
</mask>
<g mask="url(#mask25_2028_30)">
<mask id="mask26_2028_30" style="mask-type:luminance" maskUnits="userSpaceOnUse" x="654" y="147" width="119" height="126">
<path d="M673.307 147.969L772.786 165.161L754.229 272.516L654.755 255.323L673.307 147.969Z" fill="white"/>
</mask>
<g mask="url(#mask26_2028_30)">
<path d="M714.573 204.255C716.859 204.224 718.844 203.432 720.755 202.266C722.417 201.271 720.969 198.531 719.135 199.281C717.38 199.974 715.578 200.516 713.823 201.208C712.068 201.901 712.786 204.302 714.573 204.255Z" fill="#6B1A29"/>
</g>
</g>
</g>
<mask id="mask27_2028_30" style="mask-type:luminance" maskUnits="userSpaceOnUse" x="726" y="192" width="12" height="14">
<path d="M726.667 192H737.333V205.333H726.667V192Z" fill="white"/>
</mask>
<g mask="url(#mask27_2028_30)">
<mask id="mask28_2028_30" style="mask-type:luminance" maskUnits="userSpaceOnUse" x="654" y="147" width="119" height="126">
<path d="M673.307 147.969L772.786 165.161L754.229 272.516L654.755 255.323L673.307 147.969Z" fill="white"/>
</mask>
<g mask="url(#mask28_2028_30)">
<mask id="mask29_2028_30" style="mask-type:luminance" maskUnits="userSpaceOnUse" x="654" y="147" width="119" height="126">
<path d="M673.307 147.969L772.786 165.161L754.229 272.516L654.755 255.323L673.307 147.969Z" fill="white"/>
</mask>
<g mask="url(#mask29_2028_30)">
<path d="M727.365 195.297C728.891 198.406 730.208 201.479 732.448 204.146C733.87 205.812 737.078 204.521 736.057 202.208C734.615 199.042 732.51 196.401 730.344 193.682C729.234 192.281 726.464 193.505 727.365 195.297Z" fill="#6B1A29"/>
</g>
</g>
</g>
<mask id="mask30_2028_30" style="mask-type:luminance" maskUnits="userSpaceOnUse" x="740" y="197" width="6" height="9">
<path d="M740 197.333H745.333V205.333H740V197.333Z" fill="white"/>
</mask>
<g mask="url(#mask30_2028_30)">
<mask id="mask31_2028_30" style="mask-type:luminance" maskUnits="userSpaceOnUse" x="654" y="147" width="119" height="126">
<path d="M673.307 147.969L772.786 165.161L754.229 272.516L654.755 255.323L673.307 147.969Z" fill="white"/>
</mask>
<g mask="url(#mask31_2028_30)">
<mask id="mask32_2028_30" style="mask-type:luminance" maskUnits="userSpaceOnUse" x="654" y="147" width="119" height="126">
<path d="M673.307 147.969L772.786 165.161L754.229 272.516L654.755 255.323L673.307 147.969Z" fill="white"/>
</mask>
<g mask="url(#mask32_2028_30)">
<path d="M741.943 204.792C743.135 204.073 743.469 202.135 743.958 200.943C744.344 199.943 743.974 198.807 742.891 198.479C741.88 198.161 740.766 198.823 740.589 199.859C740.469 200.552 740.339 201.312 740.219 202C740.089 202.76 739.958 203.521 740.266 204.214C740.568 204.906 741.234 205.167 741.943 204.792Z" fill="#6B1A29"/>
</g>
</g>
</g>
<mask id="mask33_2028_30" style="mask-type:luminance" maskUnits="userSpaceOnUse" x="664" y="196" width="100" height="72">
<path d="M664 196H764V268H664V196Z" fill="white"/>
</mask>
<g mask="url(#mask33_2028_30)">
<mask id="mask34_2028_30" style="mask-type:luminance" maskUnits="userSpaceOnUse" x="654" y="147" width="119" height="126">
<path d="M673.307 147.969L772.786 165.161L754.229 272.516L654.755 255.323L673.307 147.969Z" fill="white"/>
</mask>
<g mask="url(#mask34_2028_30)">
<mask id="mask35_2028_30" style="mask-type:luminance" maskUnits="userSpaceOnUse" x="654" y="147" width="119" height="126">
<path d="M673.307 147.969L772.786 165.161L754.229 272.516L654.755 255.323L673.307 147.969Z" fill="white"/>
</mask>
<g mask="url(#mask35_2028_30)">
<path d="M763.651 216.651C763.661 216.583 763.677 216.516 763.604 216.5C763.62 216.432 763.562 216.354 763.573 216.281C763.359 215.464 762.547 214.823 761.552 215.224C757.161 217.167 752.76 218.755 748.234 220.245C745.953 216.156 743.615 211.979 740.953 208.036C740.724 207.708 740.312 207.641 739.932 207.786C739.391 207.62 738.802 207.734 738.109 208.042C735.286 209.542 732.625 211.786 730.359 214.172C729.031 211.167 727.318 208.307 725.203 205.74C725.089 205.578 724.974 205.417 724.849 205.323C724.792 205.24 724.677 205.078 724.62 204.995C724.266 204.578 723.63 204.542 723.229 204.828C723.005 204.859 722.776 204.964 722.531 205.135C720.615 206.37 719 207.87 717.323 209.354C716.219 210.375 714.969 211.865 713.646 212.917C712.677 211.542 711.901 209.844 711.047 208.625C710.13 207.328 709.286 206.047 708.292 204.807C708.01 203.552 706.542 202.583 705.302 203.578C703.229 205.286 701.224 207 699.224 208.719C698.052 209.724 696.635 211.328 695.234 212.437C693.964 210.724 693.036 208.286 692.318 206.672C691.578 205.193 690.99 203.667 690.156 202.312C690.036 200.943 688.396 199.734 687.078 200.786C683.615 203.531 679.891 207.37 675.661 209.198C674.036 207.495 672.703 204.917 671.526 203.078C670.099 201.052 668.917 198.854 667.104 196.979C666.568 196.385 665.573 196.786 665.245 197.437C665.005 197.609 664.828 197.792 664.771 198.141C664.37 207.458 666.349 216.979 667.75 226.182C669.214 235.828 670.906 245.37 672.01 255.021C672.219 256.693 673.828 257.255 675.031 256.896C683.708 260.599 693.589 262.307 702.76 263.964C712.766 265.76 722.786 267.068 732.958 267.047C733.604 267.016 734.094 266.672 734.328 266.146C734.339 266.078 734.406 266.089 734.417 266.021C739.547 258.583 743.984 250.599 748.661 242.87C753.578 234.615 758.625 226.38 763.219 217.927C763.495 217.552 763.635 217.146 763.651 216.651Z" fill="#6B1A29"/>
</g>
</g>
</g>
<mask id="mask36_2028_30" style="mask-type:luminance" maskUnits="userSpaceOnUse" x="682" y="216" width="9" height="35">
<path d="M682.667 216H690.667V250.667H682.667V216Z" fill="white"/>
</mask>
<g mask="url(#mask36_2028_30)">
<mask id="mask37_2028_30" style="mask-type:luminance" maskUnits="userSpaceOnUse" x="654" y="147" width="119" height="126">
<path d="M673.307 147.969L772.786 165.161L754.229 272.516L654.755 255.323L673.307 147.969Z" fill="white"/>
</mask>
<g mask="url(#mask37_2028_30)">
<mask id="mask38_2028_30" style="mask-type:luminance" maskUnits="userSpaceOnUse" x="654" y="147" width="119" height="126">
<path d="M673.307 147.969L772.786 165.161L754.229 272.516L654.755 255.323L673.307 147.969Z" fill="white"/>
</mask>
<g mask="url(#mask38_2028_30)">
<path d="M687.969 232.24C687.401 227.302 686.984 222.323 685.813 217.568C685.609 216.677 684.021 216.833 684 217.755C683.719 222.682 684.125 227.734 684.49 232.635C684.859 237.891 684.99 243.318 686.005 248.547C686.422 250.682 689.313 250.401 689.339 248.198C689.339 242.859 688.563 237.464 687.969 232.24Z" fill="#F9E9E9"/>
</g>
</g>
</g>
<mask id="mask39_2028_30" style="mask-type:luminance" maskUnits="userSpaceOnUse" x="697" y="218" width="6" height="32">
<path d="M697.333 218.667H702.667V249.333H697.333V218.667Z" fill="white"/>
</mask>
<g mask="url(#mask39_2028_30)">
<mask id="mask40_2028_30" style="mask-type:luminance" maskUnits="userSpaceOnUse" x="654" y="147" width="119" height="126">
<path d="M673.307 147.969L772.786 165.161L754.229 272.516L654.755 255.323L673.307 147.969Z" fill="white"/>
</mask>
<g mask="url(#mask40_2028_30)">
<mask id="mask41_2028_30" style="mask-type:luminance" maskUnits="userSpaceOnUse" x="654" y="147" width="119" height="126">
<path d="M673.307 147.969L772.786 165.161L754.229 272.516L654.755 255.323L673.307 147.969Z" fill="white"/>
</mask>
<g mask="url(#mask41_2028_30)">
<path d="M701.677 220.026C700.333 229.042 698.031 237.823 697.458 246.896C697.307 249.005 700.542 249.635 700.776 247.469C701.625 238.443 701.38 229.151 702.646 220.193C702.682 219.557 701.714 219.391 701.677 220.026Z" fill="#F9E9E9"/>
</g>
</g>
</g>
<mask id="mask42_2028_30" style="mask-type:luminance" maskUnits="userSpaceOnUse" x="708" y="221" width="14" height="33">
<path d="M708 221.333H721.333V253.333H708V221.333Z" fill="white"/>
</mask>
<g mask="url(#mask42_2028_30)">
<mask id="mask43_2028_30" style="mask-type:luminance" maskUnits="userSpaceOnUse" x="654" y="147" width="119" height="126">
<path d="M673.307 147.969L772.786 165.161L754.229 272.516L654.755 255.323L673.307 147.969Z" fill="white"/>
</mask>
<g mask="url(#mask43_2028_30)">
<mask id="mask44_2028_30" style="mask-type:luminance" maskUnits="userSpaceOnUse" x="654" y="147" width="119" height="126">
<path d="M673.307 147.969L772.786 165.161L754.229 272.516L654.755 255.323L673.307 147.969Z" fill="white"/>
</mask>
<g mask="url(#mask44_2028_30)">
<path d="M719.734 222.578C717.01 226.802 715.417 231.505 713.682 236.188C711.948 240.865 709.75 245.75 708.964 250.734C708.661 252.464 711.089 253.24 711.859 251.661C714.078 247.068 715.203 241.786 716.755 236.932C718.266 232.281 719.896 227.797 720.516 222.995C720.656 222.594 720.021 222.13 719.734 222.578Z" fill="#F9E9E9"/>
</g>
</g>
</g>
<mask id="mask45_2028_30" style="mask-type:luminance" maskUnits="userSpaceOnUse" x="721" y="229" width="19" height="26">
<path d="M721.333 229.333H740V254.667H721.333V229.333Z" fill="white"/>
</mask>
<g mask="url(#mask45_2028_30)">
<mask id="mask46_2028_30" style="mask-type:luminance" maskUnits="userSpaceOnUse" x="654" y="147" width="119" height="126">
<path d="M673.307 147.969L772.786 165.161L754.229 272.516L654.755 255.323L673.307 147.969Z" fill="white"/>
</mask>
<g mask="url(#mask46_2028_30)">
<mask id="mask47_2028_30" style="mask-type:luminance" maskUnits="userSpaceOnUse" x="654" y="147" width="119" height="126">
<path d="M673.307 147.969L772.786 165.161L754.229 272.516L654.755 255.323L673.307 147.969Z" fill="white"/>
</mask>
<g mask="url(#mask47_2028_30)">
<path d="M738.141 229.672C731.349 235.609 726.005 243.51 721.599 251.281C720.354 253.557 723.974 255.25 725.286 252.99C729.667 245.349 734.703 238.042 739.078 230.401C739.37 229.953 738.635 229.26 738.141 229.672Z" fill="#F9E9E9"/>
</g>
</g>
</g>
<path d="M1314.88 168.056C1308.93 174.363 1303.4 180.967 1298.27 187.868C1309.45 194.051 1319.41 201.452 1328.15 210.077C1336.9 218.702 1344.27 228.191 1350.27 238.535C1356.28 248.884 1360.87 259.972 1364.02 271.806C1367.17 283.639 1368.75 295.858 1368.75 308.452C1368.75 319.634 1367.65 330.759 1365.44 341.827C1363.24 352.884 1359.79 363.441 1355.09 373.493C1350.39 383.535 1344.42 392.868 1337.17 401.493C1329.92 410.118 1321.24 417.613 1311.13 423.972C1301.01 430.332 1289.47 435.327 1276.5 438.952C1263.54 442.577 1248.98 444.389 1232.81 444.389C1218.42 444.389 1204.74 443.045 1191.77 440.368C1178.81 437.702 1166.39 434.764 1154.5 431.556C1145.34 437.733 1135.3 442.545 1124.42 445.993C1113.54 449.452 1101.26 451.181 1087.59 451.181C1082 451.181 1077.19 450.67 1073.15 449.66C1069.11 448.644 1065.8 447.243 1063.23 445.452C1060.67 443.67 1058.77 441.624 1057.52 439.306C1056.28 436.983 1055.67 434.582 1055.67 432.097C1055.67 429.124 1056.41 426.295 1057.9 423.618C1059.38 420.941 1061.64 418.592 1064.67 416.577C1067.69 414.551 1071.55 412.946 1076.25 411.764C1080.96 410.571 1086.47 409.972 1092.77 409.972C1101.45 409.972 1110.1 410.9 1118.71 412.743C1127.34 414.577 1136.11 416.691 1145.04 419.077C1153.72 411.217 1161.66 401.785 1168.86 390.785C1176.05 379.785 1182.94 367.78 1189.54 354.764C1196.14 341.738 1202.62 328.092 1208.98 313.827C1215.36 299.551 1222.14 285.217 1229.34 270.827C1236.53 256.441 1244.31 242.347 1252.69 228.556C1261.07 214.754 1270.51 201.785 1280.98 189.66C1272.05 185.858 1262.38 182.91 1251.98 180.827C1241.57 178.743 1230.43 177.702 1218.54 177.702C1204.03 177.702 1190.05 179.191 1176.61 182.16C1163.17 185.134 1150.63 189.238 1138.96 194.472C1127.3 199.712 1116.66 205.837 1107.02 212.847C1097.4 219.863 1089.16 227.446 1082.31 235.597C1075.48 243.738 1070.19 252.238 1066.44 261.097C1062.7 269.962 1060.84 278.795 1060.84 287.597C1060.84 293.306 1061.96 298.717 1064.21 303.827C1066.47 308.941 1069.57 313.431 1073.5 317.306C1077.43 321.17 1082.07 324.233 1087.42 326.493C1092.76 328.743 1098.59 329.868 1104.9 329.868C1109.77 329.868 1114.62 329.306 1119.44 328.181C1124.26 327.045 1128.86 325.65 1133.25 323.993C1137.65 322.327 1141.76 320.514 1145.56 318.556C1149.37 316.587 1152.69 314.738 1155.54 313.014C1158.4 311.295 1160.64 309.868 1162.25 308.743C1163.86 307.608 1164.72 306.972 1164.84 306.847L1170.54 314.347C1164.96 318.045 1159.16 321.587 1153.15 324.972C1147.15 328.363 1140.93 331.4 1134.5 334.077C1128.09 336.743 1121.42 338.884 1114.52 340.493C1107.63 342.092 1100.62 342.889 1093.48 342.889C1086.34 342.889 1079.55 341.676 1073.13 339.243C1066.71 336.801 1061.09 333.347 1056.27 328.889C1051.47 324.431 1047.63 319.113 1044.77 312.931C1041.92 306.738 1040.5 299.9 1040.5 292.41C1040.5 283.842 1042.43 274.863 1046.29 265.472C1050.15 256.071 1055.68 246.764 1062.88 237.556C1070.07 228.337 1078.9 219.566 1089.38 211.243C1099.85 202.91 1111.65 195.566 1124.79 189.202C1137.93 182.842 1152.38 177.795 1168.13 174.056C1183.89 170.306 1200.69 168.431 1218.54 168.431C1231.5 168.431 1243.72 169.655 1255.19 172.097C1266.67 174.53 1277.41 178.004 1287.4 182.514C1294.17 175.264 1301.49 168.488 1309.34 162.181L1314.88 168.056ZM1349.29 296.327C1349.29 285.275 1348.04 274.754 1345.54 264.764C1343.05 254.764 1339.4 245.488 1334.59 236.931C1329.76 228.363 1323.85 220.571 1316.84 213.556C1309.82 206.545 1301.79 200.535 1292.75 195.535C1284.07 208.025 1276.16 221.222 1269.02 235.139C1261.88 249.056 1255.16 263.155 1248.86 277.431C1242.56 291.696 1236.38 305.847 1230.31 319.889C1224.24 333.92 1217.91 347.327 1211.31 360.118C1204.72 372.9 1197.55 384.785 1189.81 395.785C1182.07 406.785 1173.4 416.327 1163.77 424.41C1173.28 427.035 1182.8 429.327 1192.31 431.285C1201.82 433.243 1211.64 434.222 1221.75 434.222C1242.68 434.222 1261.11 430.624 1277.04 423.431C1292.99 416.238 1306.3 406.431 1317 394.014C1327.71 381.587 1335.76 366.988 1341.17 350.222C1346.59 333.446 1349.29 315.483 1349.29 296.327ZM1086.88 441.91C1096.51 441.91 1105.35 440.566 1113.38 437.889C1121.4 435.207 1128.86 431.374 1135.75 426.389C1127.9 424.363 1120.41 422.67 1113.27 421.306C1106.15 419.931 1099.31 419.243 1092.77 419.243C1083.49 419.243 1076.56 420.467 1071.98 422.91C1067.4 425.337 1065.11 428.285 1065.11 431.743C1065.11 434.462 1066.74 436.837 1070 438.868C1073.28 440.894 1078.9 441.91 1086.88 441.91Z" fill="#6B1A29"/>
<path d="M1487.22 376.077C1487.69 376.191 1488.16 376.243 1488.63 376.243C1489.1 376.243 1489.64 376.243 1490.24 376.243C1493.57 376.243 1496.6 375.92 1499.34 375.264C1502.08 374.613 1504.6 373.577 1506.92 372.16C1509.24 370.733 1511.47 368.858 1513.61 366.535C1515.75 364.217 1517.83 361.389 1519.86 358.056L1526.28 363.056C1520.57 371.139 1514.68 376.785 1508.61 379.993C1502.54 383.202 1496.12 384.806 1489.34 384.806C1486.84 384.806 1484.64 384.571 1482.74 384.097C1477.62 392.67 1472.15 399.962 1466.32 405.972C1460.5 411.972 1454.55 416.879 1448.49 420.681C1442.43 424.488 1436.42 427.248 1430.47 428.972C1424.52 430.691 1418.99 431.556 1413.88 431.556C1408.64 431.556 1403.8 430.629 1399.34 428.785C1394.88 426.952 1391.05 424.316 1387.84 420.868C1384.64 417.41 1382.14 413.306 1380.36 408.556C1378.57 403.795 1377.67 398.441 1377.67 392.493C1377.67 386.551 1378.63 380.488 1380.53 374.306C1382.44 368.113 1385.02 361.988 1388.28 355.931C1391.55 349.863 1395.39 344.004 1399.78 338.347C1404.18 332.696 1408.94 327.431 1414.05 322.556C1419.17 317.681 1424.47 313.285 1429.95 309.368C1435.41 305.441 1440.89 302.222 1446.36 299.722L1452.07 307.222C1445.76 311.738 1439.37 317.446 1432.88 324.347C1426.39 331.238 1420.51 338.785 1415.22 346.993C1409.92 355.202 1405.58 363.738 1402.2 372.597C1398.8 381.462 1397.11 390.051 1397.11 398.368C1397.11 405.868 1398.78 411.676 1402.11 415.785C1405.45 419.884 1410.5 421.931 1417.28 421.931C1422.51 421.931 1427.69 420.863 1432.8 418.722C1437.91 416.571 1442.9 413.655 1447.78 409.972C1452.65 406.28 1457.35 401.91 1461.86 396.868C1466.39 391.816 1470.67 386.431 1474.72 380.722C1471.27 378.696 1468.24 375.988 1465.61 372.597C1463 369.212 1460.8 365.347 1459.01 361.014C1457.23 356.67 1455.89 351.993 1455.01 346.993C1454.12 341.993 1453.67 336.884 1453.67 331.66C1453.67 326.426 1454.33 321.488 1455.63 316.847C1456.94 312.212 1458.75 308.139 1461.07 304.639C1463.39 301.129 1466.09 298.363 1469.17 296.347C1472.27 294.321 1475.66 293.306 1479.36 293.306C1482.7 293.306 1485.66 294.17 1488.28 295.889C1490.89 297.613 1493.08 299.993 1494.86 303.035C1496.65 306.066 1498.02 309.66 1498.97 313.827C1499.92 317.983 1500.4 322.441 1500.4 327.202C1500.4 330.759 1500.1 334.681 1499.51 338.972C1498.92 343.254 1498.06 347.566 1496.92 351.91C1495.8 356.243 1494.43 360.525 1492.82 364.743C1491.22 368.967 1489.35 372.743 1487.22 376.077ZM1462.95 331.66C1462.95 335.108 1463.24 338.847 1463.84 342.889C1464.44 346.931 1465.39 350.858 1466.7 354.66C1468 358.467 1469.66 362.009 1471.67 365.285C1473.7 368.551 1476.2 371.134 1479.17 373.035C1481.31 368.884 1483.12 364.634 1484.61 360.285C1486.1 355.941 1487.35 351.743 1488.36 347.702C1489.37 343.66 1490.09 339.889 1490.51 336.389C1490.92 332.879 1491.13 329.816 1491.13 327.202C1491.13 323.634 1490.83 320.363 1490.24 317.389C1489.64 314.42 1488.83 311.837 1487.82 309.639C1486.82 307.431 1485.58 305.702 1484.09 304.452C1482.6 303.202 1480.97 302.577 1479.17 302.577C1476.8 302.577 1474.6 303.384 1472.57 304.993C1470.55 306.592 1468.83 308.733 1467.4 311.41C1465.97 314.077 1464.87 317.17 1464.09 320.681C1463.33 324.196 1462.95 327.858 1462.95 331.66Z" fill="#6B1A29"/>
<path d="M1620.48 316.306C1621.19 314.405 1621.54 312.384 1621.54 310.243C1621.54 306.441 1620.02 303.441 1616.98 301.243C1613.95 299.035 1609.17 297.931 1602.63 297.931C1597.28 297.931 1591.9 299.092 1586.48 301.41C1581.07 303.733 1575.88 306.92 1570.88 310.972C1565.88 315.014 1561.2 319.827 1556.86 325.41C1552.52 330.993 1548.78 337.056 1545.63 343.597C1542.47 350.139 1539.97 357.071 1538.13 364.389C1536.29 371.712 1535.38 379.056 1535.38 386.431C1535.38 392.379 1536.03 397.431 1537.33 401.597C1538.64 405.754 1540.48 409.139 1542.86 411.764C1545.24 414.379 1548.1 416.254 1551.42 417.389C1554.75 418.514 1558.5 419.077 1562.67 419.077C1570.88 419.077 1578.84 417.238 1586.56 413.556C1594.3 409.863 1601.65 405.071 1608.61 399.181C1615.56 393.295 1621.99 386.722 1627.88 379.472C1633.76 372.212 1638.96 365.071 1643.48 358.056L1650.08 363.056C1643.67 373.879 1636.82 383.363 1629.56 391.514C1622.31 399.655 1614.88 406.462 1607.27 411.931C1599.66 417.405 1591.93 421.509 1584.08 424.243C1576.24 426.978 1568.56 428.347 1561.06 428.347C1555.12 428.347 1549.44 427.452 1544.02 425.66C1538.62 423.884 1533.86 421.181 1529.75 417.556C1525.65 413.931 1522.38 409.264 1519.94 403.556C1517.51 397.847 1516.29 391.066 1516.29 383.202C1516.29 373.926 1517.63 365.155 1520.29 356.889C1522.97 348.629 1526.54 340.988 1531 333.972C1535.46 326.962 1540.6 320.629 1546.42 314.972C1552.25 309.321 1558.35 304.535 1564.71 300.618C1571.08 296.691 1577.51 293.681 1583.98 291.597C1590.46 289.514 1596.56 288.472 1602.27 288.472C1608.11 288.472 1612.86 289.28 1616.54 290.889C1620.24 292.504 1623.15 294.441 1625.29 296.702C1627.43 298.952 1628.88 301.327 1629.65 303.827C1630.42 306.327 1630.81 308.467 1630.81 310.243C1630.81 313.108 1630.4 316.139 1629.56 319.347C1628.73 322.556 1627.57 325.504 1626.08 328.181C1624.6 330.847 1622.75 333.077 1620.54 334.868C1618.35 336.65 1615.94 337.535 1613.33 337.535C1610.72 337.535 1608.46 336.676 1606.56 334.952C1604.66 333.233 1603.71 331.066 1603.71 328.452C1603.71 328.327 1603.79 327.613 1603.96 326.306C1604.14 325.004 1604.7 323.608 1605.65 322.118C1606.61 320.634 1608.06 319.295 1610.02 318.097C1611.99 316.905 1614.76 316.306 1618.33 316.306H1620.48Z" fill="#6B1A29"/>
<path d="M1657.05 383.931C1656.81 385.347 1656.63 386.775 1656.51 388.202C1656.39 389.634 1656.34 391.066 1656.34 392.493C1656.34 396.775 1656.95 400.847 1658.19 404.722C1659.44 408.587 1661.28 411.972 1663.72 414.889C1666.16 417.795 1669.19 420.077 1672.82 421.743C1676.45 423.41 1680.6 424.243 1685.24 424.243C1700.8 424.243 1715.85 418.952 1730.36 408.368C1744.87 397.785 1759.32 381.014 1773.72 358.056L1779.78 363.41C1771.93 376.493 1763.95 387.53 1755.86 396.514C1747.78 405.488 1739.72 412.775 1731.69 418.368C1723.66 423.952 1715.78 427.983 1708.05 430.472C1700.32 432.972 1692.95 434.222 1685.94 434.222C1680.83 434.222 1675.42 433.504 1669.72 432.077C1664.01 430.66 1658.74 428.285 1653.92 424.952C1649.1 421.618 1645.12 417.16 1641.97 411.577C1638.81 405.983 1637.24 399.025 1637.24 390.702C1637.24 381.785 1638.76 373.196 1641.8 364.931C1644.82 356.67 1648.78 348.967 1653.65 341.827C1658.53 334.691 1664.12 328.176 1670.42 322.285C1676.73 316.4 1683.12 311.379 1689.59 307.222C1696.07 303.056 1702.41 299.816 1708.59 297.493C1714.78 295.176 1720.26 294.014 1725.01 294.014C1728.1 294.014 1731.26 294.493 1734.47 295.452C1737.67 296.4 1740.55 297.884 1743.11 299.91C1745.68 301.926 1747.76 304.597 1749.36 307.931C1750.97 311.264 1751.78 315.254 1751.78 319.889C1751.78 326.181 1750.32 332.097 1747.4 337.639C1744.49 343.17 1740.59 348.28 1735.72 352.972C1730.84 357.67 1725.18 361.889 1718.76 365.639C1712.34 369.389 1705.62 372.571 1698.61 375.181C1691.6 377.795 1684.52 379.879 1677.38 381.431C1670.24 382.972 1663.47 383.806 1657.05 383.931ZM1658.47 376.243C1666.43 375.41 1673.93 373.754 1680.94 371.264C1687.95 368.764 1694.38 365.702 1700.22 362.077C1706.05 358.452 1711.25 354.504 1715.82 350.222C1720.4 345.931 1724.24 341.587 1727.32 337.181C1730.41 332.78 1732.8 328.556 1734.47 324.514C1736.13 320.472 1736.97 316.847 1736.97 313.639C1736.97 310.431 1736.1 307.879 1734.38 305.972C1732.66 304.071 1730.6 303.118 1728.22 303.118C1722.99 303.118 1717.11 304.993 1710.57 308.743C1704.03 312.483 1697.49 317.655 1690.94 324.264C1684.4 330.863 1678.24 338.618 1672.47 347.535C1666.7 356.452 1662.03 366.025 1658.47 376.243Z" fill="#6B1A29"/>
<path d="M1830.99 284.556C1830.39 285.629 1829.61 286.785 1828.65 288.035C1827.71 289.285 1826.78 290.717 1825.88 292.327C1824.99 293.926 1824.22 295.795 1823.57 297.931C1822.92 300.071 1822.59 302.629 1822.59 305.597C1822.59 308.097 1823.22 311.493 1824.47 315.785C1825.72 320.066 1827.06 324.967 1828.49 330.493C1829.92 336.025 1831.25 342.03 1832.49 348.514C1833.74 355.004 1834.36 361.691 1834.36 368.577C1834.36 378.691 1832.99 387.613 1830.26 395.347C1827.53 403.071 1823.91 409.67 1819.38 415.139C1828.66 410.155 1837.76 402.993 1846.68 393.66C1855.59 384.316 1864.57 372.446 1873.61 358.056L1879.68 363.41C1874.56 371.858 1868.76 380.212 1862.28 388.472C1855.81 396.738 1848.7 404.176 1840.97 410.785C1833.24 417.384 1824.92 422.733 1815.99 426.827C1807.07 430.92 1797.62 432.972 1787.63 432.972C1778.72 432.972 1771.2 430.858 1765.07 426.639C1758.95 422.42 1755.17 416.092 1753.74 407.66L1760.15 406.41C1760.15 407.118 1760.48 408.28 1761.13 409.889C1761.79 411.488 1762.83 413.066 1764.26 414.618C1765.69 416.16 1767.63 417.53 1770.07 418.722C1772.5 419.905 1775.5 420.493 1779.07 420.493C1783.82 420.493 1788.03 419.4 1791.72 417.202C1795.41 414.993 1798.62 412.108 1801.36 408.535C1804.1 404.967 1806.42 400.9 1808.32 396.327C1810.22 391.743 1811.74 387.014 1812.86 382.139C1814 377.264 1814.81 372.509 1815.28 367.868C1815.75 363.233 1815.99 359.009 1815.99 355.202C1815.99 351.4 1815.84 347.176 1815.55 342.535C1815.26 337.9 1814.93 333.467 1814.57 329.243C1814.21 325.025 1813.87 321.337 1813.57 318.181C1813.28 315.03 1813.13 312.983 1813.13 312.035V311.681C1811.59 313.347 1809.75 315.785 1807.61 318.993C1805.47 322.202 1803.18 325.712 1800.74 329.514C1798.31 333.321 1795.87 337.191 1793.43 341.118C1790.99 345.035 1788.79 348.608 1786.82 351.827C1784.86 355.035 1783.26 357.681 1782.01 359.764C1780.76 361.837 1780.13 362.931 1780.13 363.056L1773.72 358.056C1773.84 357.931 1775.33 355.379 1778.18 350.389C1781.03 345.389 1784.81 339.056 1789.51 331.389C1794.2 323.722 1799.52 315.222 1805.47 305.889C1811.41 296.545 1817.53 287.467 1823.84 278.66L1830.99 284.556Z" fill="#6B1A29"/>
</svg>
