<svg xmlns="http://www.w3.org/2000/svg" xmlns:xlink="http://www.w3.org/1999/xlink" width="1846" zoomAndPan="magnify" viewBox="0 0 1384.5 1448.99994" height="1932" preserveAspectRatio="xMidYMid meet" version="1.0"><defs><g/><clipPath id="714ddf436c"><rect x="0" width="557" y="0" height="776"/></clipPath><clipPath id="8f481ea499"><rect x="0" width="454" y="0" height="673"/></clipPath></defs><g transform="matrix(1, 0, 0, 1, 390, 559)"><g clip-path="url(#714ddf436c)"><g fill="#6b1a29" fill-opacity="1"><g transform="translate(0.792954, 521.423071)"><g><path d="M 443.671875 -399.25 C 434.410156 -389.4375 425.800781 -379.164062 417.84375 -368.4375 C 435.25 -358.8125 450.753906 -347.285156 464.359375 -333.859375 C 477.960938 -320.441406 489.429688 -305.679688 498.765625 -289.578125 C 508.109375 -273.472656 515.234375 -256.210938 520.140625 -237.796875 C 525.046875 -219.378906 527.5 -200.363281 527.5 -180.75 C 527.5 -163.34375 525.785156 -146.03125 522.359375 -128.8125 C 518.941406 -111.601562 513.578125 -95.175781 506.265625 -79.53125 C 498.960938 -63.894531 489.664062 -49.367188 478.375 -35.953125 C 467.082031 -22.535156 453.566406 -10.875 437.828125 -0.96875 C 422.097656 8.925781 404.144531 16.695312 383.96875 22.34375 C 363.800781 27.988281 341.128906 30.8125 315.953125 30.8125 C 293.554688 30.8125 272.269531 28.726562 252.09375 24.5625 C 231.914062 20.40625 212.578125 15.828125 194.078125 10.828125 C 179.816406 20.453125 164.21875 27.945312 147.28125 33.3125 C 130.351562 38.6875 111.242188 41.375 89.953125 41.375 C 81.253906 41.375 73.757812 40.585938 67.46875 39.015625 C 61.175781 37.441406 56.039062 35.265625 52.0625 32.484375 C 48.082031 29.703125 45.117188 26.503906 43.171875 22.890625 C 41.234375 19.285156 40.265625 15.539062 40.265625 11.65625 C 40.265625 7.03125 41.421875 2.632812 43.734375 -1.53125 C 46.046875 -5.695312 49.5625 -9.351562 54.28125 -12.5 C 59 -15.644531 65.015625 -18.140625 72.328125 -19.984375 C 79.640625 -21.835938 88.195312 -22.765625 98 -22.765625 C 111.519531 -22.765625 124.988281 -21.328125 138.40625 -18.453125 C 151.820312 -15.585938 165.472656 -12.304688 179.359375 -8.609375 C 192.867188 -20.828125 205.222656 -35.492188 216.421875 -52.609375 C 227.617188 -69.734375 238.351562 -88.425781 248.625 -108.6875 C 258.894531 -128.957031 268.984375 -150.195312 278.890625 -172.40625 C 288.796875 -194.625 299.347656 -216.929688 310.546875 -239.328125 C 321.742188 -261.722656 333.863281 -283.65625 346.90625 -305.125 C 359.957031 -326.59375 374.628906 -346.769531 390.921875 -365.65625 C 377.035156 -371.570312 361.992188 -376.148438 345.796875 -379.390625 C 329.609375 -382.628906 312.257812 -384.25 293.75 -384.25 C 271.164062 -384.25 249.414062 -381.9375 228.5 -377.3125 C 207.582031 -372.6875 188.050781 -366.300781 169.90625 -358.15625 C 151.769531 -350.007812 135.207031 -340.472656 120.21875 -329.546875 C 105.226562 -318.628906 92.410156 -306.832031 81.765625 -294.15625 C 71.117188 -281.476562 62.878906 -268.242188 57.046875 -254.453125 C 51.222656 -240.671875 48.3125 -226.929688 48.3125 -213.234375 C 48.3125 -204.347656 50.066406 -195.925781 53.578125 -187.96875 C 57.097656 -180.007812 61.910156 -173.019531 68.015625 -167 C 74.128906 -160.988281 81.347656 -156.222656 89.671875 -152.703125 C 98.003906 -149.179688 107.078125 -147.421875 116.890625 -147.421875 C 124.472656 -147.421875 132.015625 -148.300781 139.515625 -150.0625 C 147.015625 -151.820312 154.1875 -154 161.03125 -156.59375 C 167.875 -159.1875 174.257812 -162.007812 180.1875 -165.0625 C 186.113281 -168.113281 191.296875 -170.976562 195.734375 -173.65625 C 200.179688 -176.34375 203.648438 -178.566406 206.140625 -180.328125 C 208.640625 -182.085938 209.984375 -183.0625 210.171875 -183.25 L 219.0625 -171.578125 C 210.363281 -165.835938 201.335938 -160.332031 191.984375 -155.0625 C 182.640625 -149.789062 172.96875 -145.070312 162.96875 -140.90625 C 152.976562 -136.738281 142.613281 -133.40625 131.875 -130.90625 C 121.144531 -128.40625 110.226562 -127.15625 99.125 -127.15625 C 88.007812 -127.15625 77.453125 -129.050781 67.453125 -132.84375 C 57.460938 -136.644531 48.71875 -142.015625 41.21875 -148.953125 C 33.726562 -155.890625 27.757812 -164.171875 23.3125 -173.796875 C 18.875 -183.421875 16.65625 -194.066406 16.65625 -205.734375 C 16.65625 -219.054688 19.660156 -233.03125 25.671875 -247.65625 C 31.691406 -262.28125 40.300781 -276.765625 51.5 -291.109375 C 62.695312 -305.453125 76.441406 -319.101562 92.734375 -332.0625 C 109.023438 -345.019531 127.394531 -356.445312 147.84375 -366.34375 C 168.289062 -376.25 190.773438 -384.113281 215.296875 -389.9375 C 239.828125 -395.769531 265.976562 -398.6875 293.75 -398.6875 C 313.914062 -398.6875 332.929688 -396.789062 350.796875 -393 C 368.660156 -389.207031 385.363281 -383.796875 400.90625 -376.765625 C 411.457031 -388.054688 422.84375 -398.601562 435.0625 -408.40625 Z M 497.25 -199.625 C 497.25 -216.832031 495.304688 -233.210938 491.421875 -248.765625 C 487.535156 -264.316406 481.84375 -278.753906 474.34375 -292.078125 C 466.851562 -305.398438 457.644531 -317.519531 446.71875 -328.4375 C 435.800781 -339.363281 423.3125 -348.710938 409.25 -356.484375 C 395.726562 -337.054688 383.414062 -316.515625 372.3125 -294.859375 C 361.207031 -273.203125 350.75 -251.265625 340.9375 -229.046875 C 331.132812 -206.835938 321.507812 -184.8125 312.0625 -162.96875 C 302.625 -141.132812 292.769531 -120.265625 282.5 -100.359375 C 272.226562 -80.460938 261.078125 -61.953125 249.046875 -44.828125 C 237.015625 -27.710938 223.503906 -12.863281 208.515625 -0.28125 C 223.316406 3.789062 238.117188 7.351562 252.921875 10.40625 C 267.734375 13.46875 283.003906 15 298.734375 15 C 331.316406 15 360.007812 9.398438 384.8125 -1.796875 C 409.613281 -13.003906 430.34375 -28.273438 447 -47.609375 C 463.65625 -66.953125 476.191406 -89.671875 484.609375 -115.765625 C 493.035156 -141.867188 497.25 -169.820312 497.25 -199.625 Z M 88.84375 26.9375 C 103.832031 26.9375 117.570312 24.851562 130.0625 20.6875 C 142.5625 16.519531 154.179688 10.550781 164.921875 2.78125 C 152.703125 -0.363281 141.039062 -3 129.9375 -5.125 C 118.832031 -7.257812 108.1875 -8.328125 98 -8.328125 C 83.5625 -8.328125 72.78125 -6.429688 65.65625 -2.640625 C 58.53125 1.148438 54.96875 5.734375 54.96875 11.109375 C 54.96875 15.359375 57.515625 19.054688 62.609375 22.203125 C 67.703125 25.359375 76.445312 26.9375 88.84375 26.9375 Z M 88.84375 26.9375 "/></g></g></g></g></g><g transform="matrix(1, 0, 0, 1, 222, 287)"><g clip-path="url(#8f481ea499)"><g fill="#6b1a29" fill-opacity="1"><g transform="translate(0.64212, 504.613116)"><g><path d="M 327.921875 -289.03125 C 311.378906 -289.03125 296.515625 -292.828125 283.328125 -300.421875 C 270.140625 -308.023438 257.957031 -317.640625 246.78125 -329.265625 C 235.601562 -340.890625 225.207031 -352.847656 215.59375 -365.140625 C 205.976562 -377.429688 196.476562 -388.160156 187.09375 -397.328125 C 177.707031 -406.492188 168.09375 -412.53125 158.25 -415.4375 C 148.414062 -418.34375 137.914062 -416.21875 126.75 -409.0625 C 113.78125 -401.007812 107.070312 -385.582031 106.625 -362.78125 C 106.175781 -339.988281 111.425781 -312.832031 122.375 -281.3125 C 133.332031 -249.789062 149.09375 -217.269531 169.65625 -183.75 C 192.007812 -148.425781 215.253906 -119.25 239.390625 -96.21875 C 263.535156 -73.195312 286.335938 -59.226562 307.796875 -54.3125 C 327.921875 -49.394531 346.253906 -50.175781 362.796875 -56.65625 C 379.335938 -63.144531 394.085938 -73.207031 407.046875 -86.84375 C 420.015625 -100.476562 430.519531 -115.117188 438.5625 -130.765625 L 451.984375 -123.390625 C 439.910156 -98.359375 422.804688 -76.117188 400.671875 -56.671875 C 378.546875 -37.222656 353.625 -22.132812 325.90625 -11.40625 C 298.1875 -0.675781 269.351562 4.6875 239.40625 4.6875 C 208.101562 4.6875 178.707031 -1.34375 151.21875 -13.40625 C 123.726562 -25.476562 99.585938 -42.128906 78.796875 -63.359375 C 58.003906 -84.597656 41.6875 -109.1875 29.84375 -137.125 C 18 -165.070312 12.078125 -195.140625 12.078125 -227.328125 C 12.078125 -259.515625 18 -289.578125 29.84375 -317.515625 C 41.6875 -345.460938 58.003906 -370.050781 78.796875 -391.28125 C 99.585938 -412.519531 123.726562 -429.0625 151.21875 -440.90625 C 178.707031 -452.757812 208.101562 -458.6875 239.40625 -458.6875 C 256.394531 -458.6875 271.816406 -456.113281 285.671875 -450.96875 C 299.535156 -445.832031 312.273438 -439.796875 323.890625 -432.859375 C 335.515625 -425.929688 346.242188 -419.894531 356.078125 -414.75 C 365.921875 -409.613281 375.085938 -407.046875 383.578125 -407.046875 C 400.117188 -407.046875 410.957031 -411.40625 416.09375 -420.125 C 421.238281 -428.84375 423.8125 -440.578125 423.8125 -455.328125 L 438.5625 -455.328125 C 441.25 -437.003906 441.585938 -418.117188 439.578125 -398.671875 C 437.566406 -379.222656 432.535156 -361.226562 424.484375 -344.6875 C 416.441406 -328.144531 404.59375 -314.734375 388.9375 -304.453125 C 373.289062 -294.171875 352.953125 -289.03125 327.921875 -289.03125 Z M 327.921875 -289.03125 "/></g></g></g></g></g></svg>